<?xml version="1.0" encoding="utf-8"?>
<!-- Generator: Adobe Illustrator 21.0.0, SVG Export Plug-In . SVG Version: 6.00 Build 0)  -->
<svg version="1.1" id="Layer_1" xmlns="http://www.w3.org/2000/svg" xmlns:xlink="http://www.w3.org/1999/xlink" x="0px" y="0px"
	 viewBox="0 0 750 750" style="enable-background:new 0 0 750 750;" xml:space="preserve">
<style type="text/css">
	.st0{fill:#A9A3A1;}
</style>
<g>
	<path class="st0" d="M276.7,283.5c-34.5-1.4-59.1-13.1-59.3-13.3c-2.7-1.3-5.8-1.3-8.5,0c-2.7,1.3-4.6,3.8-5.1,6.7
		c-0.2,1.1-5.3,28,10.8,48.9c10.4,13.5,26.8,21.1,48.7,22.6c2.7,0.2,5.3,0.3,7.8,0.3c33.2,0,45.3-15.6,45.6-30.2
		C317.1,302.5,301.9,284.5,276.7,283.5z"/>
	<path class="st0" d="M721.7,397.8c-2.7-27.2-27.3-45.2-40-52.8c5.9-21.9,3.7-40.2-6.5-54.5c-20-28-65-30-80-29.7
		c-25.1-25.3-52.1-38.2-80.5-38.2c-28.2,0-50.2,12.9-61.4,21.1c-21.8-25.7-46.1-38.6-72.2-38.6c-19.1,0-35.2,7.2-46.2,13.9
		c-1.8-10.4-5.8-18.9-12-25.5c-8.7-9.2-21.7-14.1-37.5-14.1c-7,0-13.3,0.9-17.9,1.9c-16.6-22.4-33.8-33.8-51.4-33.8
		c-23.7,0-39.7,20.7-46.2,31.1c-2.6-0.2-5.2-0.2-7.6-0.2c-33.1,0-53,14.3-64.5,46.4c-4.3,11.8-4.2,22.2-1.9,31
		c-19.7,9.1-70,37.8-67.7,91.1c0.6,14.6,6.5,27,17.3,36.9c24.9,22.5,70.4,25,89.3,25c1.8,0,3.3,0,4.6-0.1c0.1,1.2,0.1,2.4,0.2,3.5
		c2.4,21.9,15.8,37.1,23.4,44.2c-5.7,22.8-3.4,41.5,6.8,56c-9.3,5.7-15.2,14.5-15.3,23.8c0,7.7,3.9,21.9,31.7,31.3
		c6.4,1.5,19.6,4.2,32.8,4.2c14.8,0,29.5-3.4,34-15.9c0.5-1.5,0.9-3.1,1-4.9c2.6,2.8,5.4,5.3,8.1,7.8c-8.4,5.4-15.2,11.1-18.1,17
		c-2.6,5.5-1.9,10.1-0.9,13c4.9,13.6,24.4,13.6,30.9,13.6c25.4,0,61.2-8.8,63.5-9.4c4.6-1.6,8.5-3.3,11.9-5.2
		c22.6-1.5,41-8,49.3-11.4c28.7,15.5,55.9,23.4,80.9,23.4c18.6,0,33.9-4.3,46.3-10.2c4,9.4,16.3,12.9,32.5,12.9
		c18.2,0,41-4.4,61.5-9.5c24.1-8.2,30-20.4,30.7-29.1c0.6-7.5-2.6-15-8.8-20.9c26.6-19.9,36.6-52.8,38-75.7
		C709.9,444.4,724,421,721.7,397.8z M96.5,326.2c-11.8,0-21.4-9.6-21.4-21.4c0-5.3,4.3-9.6,9.6-9.6s9.6,4.3,9.6,9.6
		c0,2.5,4.6,2.5,4.6,0c0-5.3,4.3-9.6,9.6-9.6c5.3,0,9.6,4.3,9.6,9.6C117.9,316.6,108.3,326.2,96.5,326.2z M664.7,454.6
		c-2.4,1.8-3.9,4.6-3.9,7.6c0,3.2-1.8,78.8-75.1,78.8c0,0,0,0,0,0c-7.7,0-16.1-0.8-24.9-2.5c-4-0.8-8.1,1.1-10.1,4.7
		c-0.2,0.4-21.8,37.4-71.2,37.4c-22.8,0-48.3-7.8-75.7-23.3c-1.5-0.8-3.1-1.2-4.7-1.2c-1.5,0-2.9,0.3-4.2,1
		c-0.2,0.1-10.9,5.3-27,8.8c0.5-3.1,0.4-5.8,0.1-7.6c-2.4-14.6-19.2-26.5-37.4-26.5c-4.4,0-8.7,0.7-12.6,2.1
		c-7.3,2.5-22.8,8-37.9,15.2c-8.1-6.3-15.6-13.9-22.3-23.1c-2-2.7-5.2-4.1-8.5-3.9c-0.2,0-2.7,0.2-6.8,0.2c-12.6,0-43.3-2-56.7-20.1
		c-7.9-10.7-8.9-26.2-2.8-46.2c1.2-4-0.3-8.2-3.7-10.6c-0.2-0.1-18.4-13.2-20.8-35c-1.7-16.1,5.7-33.4,22-51.2
		c2.2-2.3,3-5.6,2.3-8.7c-0.7-3.1-3-5.6-5.9-6.7c-0.5-0.2-50.7-19.5-43.8-63.9c0.6-3.9-1.2-7.7-4.6-9.7
		c-0.9-0.5-21.9-13.2-12.7-38.7c8.8-24.3,21.8-33.7,46.5-33.7c3.8,0,7.8,0.2,12,0.6c4,0.4,7.7-1.7,9.5-5.3
		c3.6-7.3,16.5-26.2,32.4-26.2c12.1,0,25.7,10.7,39.5,30.8c2.4,3.5,6.8,5,10.8,3.7c0.1,0,8.8-2.7,19-2.7c10.5,0,18.5,2.7,23.6,8.1
		c5.9,6.2,8.5,16.4,7.7,30.3c-0.2,4,2,7.6,5.7,9.2c3.6,1.6,7.9,0.8,10.7-2c0.2-0.2,20.4-20.1,48-20.1c22.3,0,43.6,13.1,63.2,38.8
		c1.7,2.2,4.2,3.5,6.9,3.7c2.7,0.2,5.4-0.8,7.4-2.7c0.2-0.2,23.3-22.3,56.2-22.3c24.1,0,47.5,11.9,69.6,35.3c2,2.1,4.8,3.1,7.6,3
		c0.2,0,2.1-0.1,5.4-0.1c11,0,48,1.6,62.4,21.7c7.6,10.6,8.1,25.7,1.6,44.9c-1.6,4.6,0.6,9.7,5,11.8c0.3,0.2,34,16.4,36.4,41.2
		C704.3,416.6,691.6,435.1,664.7,454.6z"/>
</g>
</svg>
